Coordinates
version=1
nRows=32
nColumns=38
inDegrees=yes

Units are S.I. units (second, meters, Newtons, ...)
Angles are in degrees.

endheader
time	first_body_tilt	first_body_list	first_body_rotation	first_body_tx	first_body_ty	first_body_tz	hip_flexion_r	hip_adduction_r	hip_rotation_r	knee_angle_r	ankle_angle_r	subtalar_angle_r	mtp_angle_r	hip_flexion_l	hip_adduction_l	hip_rotation_l	knee_angle_l	ankle_angle_l	subtalar_angle_l	mtp_angle_l	lumbar_extension	lumbar_bending	lumbar_rotation	arm_flex_r	arm_add_r	arm_rot_r	elbow_flex_r	pro_sup_r	wrist_flex_r	wrist_dev_r	arm_flex_l	arm_add_l	arm_rot_l	elbow_flex_l	pro_sup_l	wrist_flex_l	wrist_dev_l
0.960000	2.772749	2.258917	0.290194	1.255171	0.018307	0.053807	18.251414	5.675530	-2.368724	-20.221401	7.256760	0.000000	0.000000	21.863540	-9.326928	-5.913557	-70.007023	-14.792249	0.000000	0.000000	-3.649330	1.564605	7.376979	8.273506	-12.269392	5.376378	38.636484	110.985314	0.000000	0.000000	-1.254505	-8.941394	-22.261457	15.531164	113.302643	0.000000	0.000000	
0.965000	2.702322	2.239565	0.186099	1.255111	0.018267	0.053838	17.910930	5.510148	-2.262712	-20.060326	7.399565	0.000000	0.000000	22.634922	-9.026633	-5.919210	-70.216262	-14.299418	0.000000	0.000000	-3.666899	1.351416	7.539671	8.657435	-12.317727	5.418048	38.892779	110.939018	0.000000	0.000000	-1.435310	-8.986928	-22.322865	15.513841	113.239337	0.000000	0.000000	
0.970000	2.630893	2.221007	0.080796	1.255040	0.018237	0.053870	17.566717	5.356030	-2.162646	-19.890581	7.538342	0.000000	0.000000	23.392389	-8.746554	-5.942455	-70.361574	-13.825810	0.000000	0.000000	-3.680694	1.150026	7.703521	9.030292	-12.362335	5.449119	39.154691	110.888386	0.000000	0.000000	-1.622005	-9.032633	-22.383797	15.520988	113.185380	0.000000	0.000000	
0.975000	2.558790	2.203345	-0.026091	1.254952	0.018219	0.053902	17.218427	5.215106	-2.069703	-19.712002	7.673879	0.000000	0.000000	24.135017	-8.489953	-5.983328	-70.444462	-13.355552	0.000000	0.000000	-3.690565	0.962618	7.867995	9.390944	-12.403583	5.470686	39.424825	110.828089	0.000000	0.000000	-1.813947	-9.077886	-22.447308	15.553124	113.143597	0.000000	0.000000	
0.980000	2.486391	2.186509	-0.134445	1.254842	0.018211	0.053936	16.866124	5.087811	-1.984212	-19.524353	7.806754	0.000000	0.000000	24.861921	-8.258061	-6.041844	-70.465393	-12.874172	0.000000	0.000000	-3.696249	0.789790	8.032452	9.738591	-12.441379	5.482468	39.705173	110.754465	0.000000	0.000000	-2.010207	-9.122130	-22.515833	15.611689	113.113996	0.000000	0.000000	
0.985000	2.414118	2.170326	-0.243771	1.254706	0.018213	0.053971	16.510121	4.973475	-1.905769	-19.327261	7.937290	0.000000	0.000000	25.572240	-8.050496	-6.117908	-70.423954	-12.371087	0.000000	0.000000	-3.697474	0.630946	8.196220	10.072895	-12.475272	5.483253	39.996864	110.665791	0.000000	0.000000	-2.209688	-9.164878	-22.591264	15.698485	113.094146	0.000000	0.000000	
0.990000	2.342448	2.154595	-0.353337	1.254542	0.018223	0.054009	16.150777	4.870826	-1.833424	-19.120193	8.065570	0.000000	0.000000	26.265107	-7.865800	-6.211185	-70.319161	-11.841098	0.000000	0.000000	-3.694082	0.484783	8.358650	10.394041	-12.504591	5.471455	40.300036	110.562289	0.000000	0.000000	-2.411230	-9.205734	-22.675084	15.814967	113.079909	0.000000	0.000000	
0.995000	2.271916	2.139154	-0.462316	1.254352	0.018237	0.054050	15.788303	4.778485	-1.765906	-18.902476	8.191506	0.000000	0.000000	26.939608	-7.702033	-6.320956	-70.149857	-11.284727	0.000000	0.000000	-3.686124	0.349793	8.519153	10.702721	-12.528590	5.445666	40.613836	110.445877	0.000000	0.000000	-2.613698	-9.244397	-22.768529	15.961550	113.066317	0.000000	0.000000	
1.000000	2.203112	2.123925	-0.569894	1.254138	0.018252	0.054091	15.422607	4.695389	-1.701841	-18.673349	8.314918	0.000000	0.000000	27.594759	-7.557279	-6.446017	-69.915090	-10.707487	0.000000	0.000000	-3.673926	0.224700	8.677209	11.000017	-12.546593	5.405086	40.936585	110.319686	0.000000	0.000000	-2.816019	-9.280668	-22.872792	16.137096	113.048429	0.000000	0.000000	
1.005000	2.136651	2.108927	-0.675332	1.253907	0.018264	0.054134	15.053217	4.621046	-1.639949	-18.432034	8.435609	0.000000	0.000000	28.229514	-7.430019	-6.584639	-69.614428	-10.118311	0.000000	0.000000	-3.658093	0.108757	8.832352	11.287216	-12.558116	5.349796	41.266063	110.187418	0.000000	0.000000	-3.017180	-9.314428	-22.989257	16.338676	113.022004	0.000000	0.000000	
1.010000	2.073127	2.094264	-0.777994	1.253665	0.018271	0.054176	14.679290	4.555618	-1.579194	-18.177808	8.553412	0.000000	0.000000	28.842795	-7.319305	-6.734602	-69.248130	-9.527545	0.000000	0.000000	-3.639459	0.001885	8.984137	11.565593	-12.562954	5.280837	41.599860	110.052630	0.000000	0.000000	-3.216191	-9.345592	-23.119740	16.561669	112.983923	0.000000	0.000000	
1.015000	2.013048	2.080095	-0.877351	1.253421	0.018268	0.054216	14.299701	4.499820	-1.518905	-17.910074	8.668211	0.000000	0.000000	29.433554	-7.224736	-6.893299	-68.817177	-8.944928	0.000000	0.000000	-3.618997	-0.095352	9.132088	11.836195	-12.561246	5.200138	41.935739	109.918069	0.000000	0.000000	-3.412014	-9.374041	-23.266679	16.800142	112.932336	0.000000	0.000000	
1.020000	1.956776	2.066582	-0.972979	1.253185	0.018253	0.054253	13.913201	4.454685	-1.458840	-17.628425	8.779923	0.000000	0.000000	30.000832	-7.146267	-7.057872	-68.323136	-8.377950	0.000000	0.000000	-3.597708	-0.181907	9.275657	12.099687	-12.553486	5.110321	42.271916	109.785171	0.000000	0.000000	-3.603507	-9.399550	-23.433205	17.047459	112.866587	0.000000	0.000000	
1.025000	1.904470	2.053842	-1.064558	1.252965	0.018225	0.054288	13.518615	4.421257	-1.399211	-17.332700	8.888481	0.000000	0.000000	30.543808	-7.083907	-7.225367	-67.767897	-7.830860	0.000000	0.000000	-3.576507	-0.256503	9.414191	12.356268	-12.540506	5.014451	42.607226	109.653839	0.000000	0.000000	-3.789388	-9.421740	-23.622996	17.296974	112.787007	0.000000	0.000000	
1.030000	1.856053	2.041908	-1.151886	1.252769	0.018184	0.054319	13.115054	4.400282	-1.340651	-17.023030	8.993797	0.000000	0.000000	31.061823	-7.037384	-7.392886	-67.153326	-7.304417	0.000000	0.000000	-3.556120	-0.317932	9.546944	12.605682	-12.523406	4.915757	42.941150	109.522550	0.000000	0.000000	-3.968255	-9.440072	-23.839871	17.542726	112.694676	0.000000	0.000000	
1.035000	1.811208	2.030701	-1.234889	1.252602	0.018129	0.054347	12.702120	4.391948	-1.284106	-16.699897	9.095755	0.000000	0.000000	31.554372	-7.005851	-7.557708	-66.480887	-6.796320	0.000000	0.000000	-3.536992	-0.365345	9.673125	12.847308	-12.503452	4.817363	43.273706	109.388790	0.000000	0.000000	-4.138669	-9.453900	-24.087128	17.780019	112.591217	0.000000	0.000000	
1.040000	1.769391	2.020024	-1.313639	1.252470	0.018061	0.054373	12.280076	4.395732	-1.230676	-16.364174	9.194218	0.000000	0.000000	32.021074	-6.987690	-7.717406	-65.751311	-6.302132	0.000000	0.000000	-3.519225	-0.398495	9.792004	13.080305	-12.481942	4.722054	43.605250	109.249747	0.000000	0.000000	-4.299307	-9.462575	-24.366699	18.005814	112.478676	0.000000	0.000000	
1.045000	1.729870	2.009577	-1.388354	1.252373	0.017982	0.054398	11.849952	4.410379	-1.181410	-16.017177	9.289064	0.000000	0.000000	32.461637	-6.980484	-7.869933	-64.964371	-5.816447	0.000000	0.000000	-3.502537	-0.417882	9.903040	13.303778	-12.460069	4.632090	43.936230	109.103121	0.000000	0.000000	-4.449137	-9.465594	-24.678271	18.218901	112.359491	0.000000	0.000000	
1.050000	1.691785	1.998990	-1.459399	1.252312	0.017894	0.054423	11.413567	4.434003	-1.137096	-15.660700	9.380249	0.000000	0.000000	32.875812	-6.981146	-8.013696	-64.118810	-5.334042	0.000000	0.000000	-3.486257	-0.424774	10.006036	13.516937	-12.438792	4.549077	44.266949	108.947897	0.000000	0.000000	-4.587599	-9.462742	-25.018586	18.419827	112.236483	0.000000	0.000000	
1.055000	1.654201	1.987869	-1.527281	1.252283	0.017798	0.054450	10.973441	4.464316	-1.098100	-15.297018	9.467880	0.000000	0.000000	33.263362	-6.986214	-8.147604	-63.212457	-4.850812	0.000000	0.000000	-3.469370	-0.421094	10.101263	13.719219	-12.418755	4.473914	44.597390	108.784895	0.000000	0.000000	-4.714721	-9.454213	-25.381109	18.610598	112.112839	0.000000	0.000000	
1.060000	1.616173	1.975843	-1.592639	1.252282	0.017696	0.054478	10.532580	4.498933	-1.064278	-14.928840	9.552282	0.000000	0.000000	33.624029	-6.992261	-8.271090	-62.242518	-4.364361	0.000000	0.000000	-3.450633	-0.409174	10.189532	13.910346	-12.400267	4.406815	44.927147	108.616976	0.000000	0.000000	-4.831155	-9.440645	-25.756252	18.794215	111.992005	0.000000	0.000000	
1.065000	1.576814	1.962610	-1.656225	1.252302	0.017590	0.054510	10.094138	4.535710	-1.034996	-14.559198	9.634056	0.000000	0.000000	33.957487	-6.996347	-8.384081	-61.206018	-3.874207	0.000000	0.000000	-3.428754	-0.391426	10.272183	14.090318	-12.383344	4.347405	45.255480	108.448820	0.000000	0.000000	-4.938090	-9.423076	-26.132200	18.974117	111.877465	0.000000	0.000000	
1.070000	1.535363	1.947966	-1.718881	1.252334	0.017480	0.054543	9.660960	4.573061	-1.009237	-14.191244	9.714104	0.000000	0.000000	34.263292	-6.996432	-8.486930	-60.100308	-3.381661	0.000000	0.000000	-3.402643	-0.369968	10.350993	14.259335	-12.367824	4.294879	45.581495	108.286315	0.000000	0.000000	-5.037069	-9.402799	-26.496281	19.153624	111.772406	0.000000	0.000000	
1.075000	1.491251	1.931807	-1.781486	1.252369	0.017369	0.054576	9.235094	4.610186	-0.985785	-13.827971	9.793619	0.000000	0.000000	34.540801	-6.991684	-8.580302	-58.923566	-2.889483	0.000000	0.000000	-3.371691	-0.346289	10.427995	14.417660	-12.353517	4.248205	45.904434	108.135637	0.000000	0.000000	-5.129728	-9.381146	-26.836669	19.335483	111.679335	0.000000	0.000000	
1.080000	1.444183	1.914118	-1.844882	1.252398	0.017257	0.054608	8.817318	4.647175	-0.963404	-13.471896	9.874033	0.000000	0.000000	34.789090	-6.982588	-8.665045	-57.675194	-2.401473	0.000000	0.000000	-3.336041	-0.321025	10.505257	14.565461	-12.340373	4.206334	46.223996	108.002227	0.000000	0.000000	-5.217505	-9.359250	-27.144091	19.521566	111.599709	0.000000	0.000000	
1.085000	1.394192	1.894935	-1.909781	1.252412	0.017145	0.054637	8.406804	4.684958	-0.941005	-13.124743	9.956928	0.000000	0.000000	35.006884	-6.970871	-8.742065	-56.356041	-1.922116	0.000000	0.000000	-3.296766	-0.293873	10.584661	14.702654	-12.328623	4.168403	46.540617	107.889848	0.000000	0.000000	-5.301384	-9.337827	-27.413209	19.712759	111.533704	0.000000	0.000000	
1.090000	1.341679	1.874309	-1.976652	1.252403	0.017033	0.054661	8.000993	4.725109	-0.917731	-12.787203	10.043926	0.000000	0.000000	35.192544	-6.959213	-8.812230	-54.968413	-1.456379	0.000000	0.000000	-3.255922	-0.263693	10.667705	14.828796	-12.318874	4.133903	46.855638	107.799914	0.000000	0.000000	-5.381716	-9.317031	-27.643366	19.909027	111.480180	0.000000	0.000000	
1.095000	1.287398	1.852274	-2.045644	1.252366	0.016922	0.054679	7.595753	4.769547	-0.892980	-12.458821	10.136554	0.000000	0.000000	35.344124	-6.950829	-8.876336	-53.515864	-1.009666	0.000000	0.000000	-3.216405	-0.228751	10.755389	14.943043	-12.312110	4.102790	47.171271	107.731213	0.000000	0.000000	-5.458144	-9.296417	-27.838553	20.109590	111.436880	0.000000	0.000000	
1.100000	1.232391	1.828822	-2.116539	1.252298	0.016811	0.054691	7.185828	4.820178	-0.866366	-12.138069	10.236111	0.000000	0.000000	35.459545	-6.948981	-8.935138	-52.002814	-0.587878	0.000000	0.000000	-3.181627	-0.187063	10.848161	15.044205	-12.309626	4.075538	47.490348	107.680055	0.000000	0.000000	-5.529651	-9.275016	-28.006588	20.313155	111.400847	0.000000	0.000000	
1.105000	1.177844	1.803905	-2.188798	1.252197	0.016700	0.054697	6.765534	4.878555	-0.837664	-11.822598	10.343549	0.000000	0.000000	35.536851	-6.956508	-8.989448	-50.434070	-0.197464	0.000000	0.000000	-3.155031	-0.136769	10.945962	15.130890	-12.312869	4.053131	47.815879	107.640799	0.000000	0.000000	-5.594718	-9.251514	-28.157690	20.518129	111.368981	0.000000	0.000000	
1.110000	1.124908	1.777432	-2.261668	1.252064	0.016588	0.054698	6.329601	4.945614	-0.806761	-11.509645	10.459387	0.000000	0.000000	35.574550	-6.975461	-9.040271	-48.814331	0.154657	0.000000	0.000000	-3.139535	-0.076462	11.048307	15.201713	-12.323238	4.036994	48.150471	107.606634	0.000000	0.000000	-5.651557	-9.224481	-28.302715	20.722774	111.338637	0.000000	0.000000	
1.115000	1.074496	1.749288	-2.334361	1.251905	0.016474	0.054695	5.874029	5.021512	-0.773641	-11.196541	10.583671	0.000000	0.000000	35.571960	-7.006867	-9.088949	-47.147769	0.461394	0.000000	0.000000	-3.136995	-0.005423	11.154413	15.255537	-12.341864	4.028877	48.495750	107.570492	0.000000	0.000000	-5.698385	-9.192616	-28.451390	20.925297	111.308139	0.000000	0.000000	
